<?xml version="1.0" encoding="UTF-8"?><svg xmlns="http://www.w3.org/2000/svg" width="90.24" height="49.92" viewBox="0 0 90.24 49.92"><defs><style>.d{fill:#fff;}</style></defs><g id="a"/><g id="b"><g id="c"><path class="d" d="M33.44,28.43c-8.83-2.24-10.8-13.91-21.48-11.05,9.11,1.08,10.53,12.01,19.54,12.02-.02,.01-.04,.02-.07,.03,1.32,0,2.64-.17,3.93-.48,1.15,.36,2.36,.52,3.57,.48h.03c.7-.02,1.4-.09,2.09-.22,.55-.08,1.09-.19,1.6-.31,1.26,.35,2.56,.52,3.87,.51l-.05,.02C67.73,28.97,63.24,6.09,79.41,.01c-3.58-.13-7.14,.71-10.29,2.42-17.41,.02-16.24,15.68-25.22,23.84-.6-.45-1.17-.93-1.72-1.43,5.61-6.07,7.29-16.42,17.12-19.98-13.11,0-14.8,9.78-19.7,17.36-4.19-4.52-8.08-9.26-16.75-7.02,7.15,.76,9.86,6.44,14.14,10.39-.24,.25-.48,.49-.73,.73-6.05-4.28-9.17-12.39-18.94-10.18,8.09,.96,10.49,9.07,16.4,12.13-.09,.05-.18,.11-.27,.16m53.36,7.3v-2.79h1.24c.19,0,.39,.02,.58,.08,.13,.05,.24,.14,.31,.26,.08,.13,.12,.27,.12,.42,0,.19-.07,.37-.2,.5-.16,.15-.38,.24-.6,.26,.08,.04,.16,.08,.23,.14,.12,.11,.22,.24,.31,.37l.49,.76h-.47l-.37-.58c-.11-.17-.2-.3-.27-.39-.05-.07-.12-.13-.19-.19-.05-.03-.11-.06-.17-.08-.07,0-.14-.01-.21-.01h-.43v1.24h-.36Zm.38-1.56h.8c.14,0,.27-.01,.4-.05,.09-.03,.17-.09,.22-.17,.05-.07,.07-.16,.07-.25,0-.12-.05-.24-.15-.33-.13-.1-.3-.14-.46-.13h-.9v.92Zm.81-1.98c.6,0,1.17,.23,1.59,.65,.87,.85,.88,2.24,.03,3.11l-.03,.03c-.88,.87-2.3,.87-3.18,0-.87-.85-.88-2.24-.03-3.11l.03-.03c.42-.42,1-.65,1.59-.65m1.47,.77c-.82-.8-2.13-.8-2.95,0-.8,.79-.82,2.08-.03,2.88l.03,.03c.82,.8,2.13,.8,2.95,0,.8-.79,.82-2.08,.03-2.88l-.03-.03M1.33,46.41v-9.84c.13-1.06-.38-2.1-1.31-2.64v-.13c.67-.02,1.34,0,2.01,.07,.75,0,1.5-.16,2.18-.49h.07v2.66c.92-1.74,2.78-2.78,4.75-2.66,2.09-.01,4.02,1.11,5.05,2.92,1.04-1.76,2.92-2.87,4.97-2.92,2.12-.06,3.68,.42,4.66,1.47,1,1.05,1.49,2.9,1.49,5.49v6.61c-.14,1.04,.47,2.03,1.46,2.37v.14h-5.69v-.14c.49-.23,.86-.65,1.04-1.16,.17-.55,.25-1.12,.23-1.7v-5.22c0-3.78-1.24-5.65-3.76-5.65-1.09-.05-2.14,.41-2.83,1.26-.7,1.2-1.02,2.59-.89,3.97v5.07c0,.19-.02,.38-.07,.57,.09,1.5,.54,2.44,1.34,2.86v.14h-5.5v-.14c.85-.57,1.34-1.56,1.27-2.59v-5.77c.04-1.29-.26-2.57-.86-3.72-.57-1.03-1.65-1.66-2.83-1.65-1.07-.14-2.14,.29-2.83,1.13-.69,.91-1.05,2.04-1,3.18v6.64c0,1.42,.4,2.35,1.2,2.78v.14H0v-.14c.81-.36,1.32-1.16,1.31-2.04l.02-.89Zm25.83-.81c-.04-1.62,.85-2.87,2.66-3.75,.67-.28,1.38-.49,2.09-.64,.96-.22,1.71-.4,2.25-.55,.48-.14,.94-.35,1.36-.64,.15-.15,.27-.32,.36-.51,.11-.24,.17-.5,.17-.77,.02-.62-.36-1.18-.93-1.41-.6-.3-1.26-.46-1.93-.46-1.43,.07-2.82,.49-4.05,1.21l1.99-3.1c.15,0,.3,0,.45-.04,.17-.02,.38-.05,.55-.07,.16-.02,.33-.04,.49-.05,.17-.02,.34-.02,.51-.02,1.46-.07,2.9,.34,4.1,1.16,1.12,.84,1.73,2.19,1.62,3.59v5.38c-.06,.73,.12,1.47,.51,2.09,.54,.51,1.27,.78,2.01,.75l-1.36,2.12c-1.07-.03-2.11-.38-2.98-.99-.66-.59-1-1.46-.93-2.34v-4.86c-.81,.45-1.69,.77-2.6,.95-.89,.18-1.76,.48-2.56,.9-.56,.39-.86,1.06-.78,1.73-.03,.71,.29,1.4,.86,1.83,.67,.47,1.47,.72,2.29,.71,.77-.05,1.53-.19,2.27-.4l-1.76,2.29c-.5,.08-1,.12-1.5,.13-1.35,.06-2.68-.38-3.71-1.25-.91-.73-1.43-1.83-1.43-2.99m15.01,1.08v-8.9c.14-.98-.31-1.96-1.15-2.48v-.11c.89,0,1.49,.03,1.82,.06,.67-.01,1.33-.16,1.94-.43h.06v2.43c.39-.68,.94-1.25,1.6-1.67,.77-.53,1.69-.79,2.62-.75,3.55,.04,5.32,1.82,5.32,5.34v6.06c0,.18-.02,.36-.06,.53,.09,1.35,.49,2.24,1.22,2.61v.12h-4.96v-.12c.42-.25,.75-.62,.93-1.08,.14-.58,.2-1.18,.18-1.78v-4.79c0-3.25-1.21-4.87-3.63-4.87-.98-.13-1.95,.26-2.57,1.03-.49,.88-.72,1.89-.66,2.9v6.04c-.02,.53,.04,1.05,.18,1.56,.22,.42,.56,.77,.98,.99v.12h-4.97v-.12c.43-.23,.77-.6,.96-1.05,.12-.53,.17-1.08,.15-1.62m15.92-1.8v-7.64h-2.03v-1.15c2.36-.33,3.57-2.17,3.57-5.49h1.15v4.59h2.23c.59,.05,1.19-.02,1.76-.2h.04v2.86h-.04c-.45-.46-1.08-.68-1.72-.61h-2.27v6.4c0,1.95,.41,3.22,1.23,3.8,.45,.25,.96,.39,1.47,.4,.46-.03,.91-.14,1.33-.31l-1.58,2.2c-.41,.05-.82,.07-1.22,.06-1.17,.08-2.3-.46-2.96-1.43-.66-1.04-.99-2.24-.96-3.47m8.44,2.05v-8.88c.03-.6-.04-1.2-.2-1.78-.18-.42-.5-.77-.91-.97v-.11h.78c.35-.02,.78-.04,1.27-.04,.38,0,.76-.01,1.13-.07,.21-.02,.41-.11,.56-.26h.14v2.32c.34-.81,.99-1.47,1.8-1.82,.89-.32,1.84-.47,2.78-.44v2.9c-.37-.42-.93-.63-1.49-.55-.41,.02-.82,.08-1.22,.18-1.24,.44-1.87,1.75-1.86,3.95v5.52c-.03,.51,.05,1.01,.22,1.49,.19,.43,.52,.77,.94,.99v.12h-5.03v-.12c.44-.19,.78-.54,.96-.99,.12-.47,.17-.96,.16-1.45m7.13-1.32c-.05-1.62,.84-2.88,2.64-3.75,.68-.28,1.38-.49,2.1-.64,.96-.22,1.71-.4,2.25-.55,.48-.14,.94-.35,1.36-.64,.15-.14,.27-.32,.36-.51,.12-.24,.18-.5,.18-.77,.02-.62-.35-1.18-.93-1.41-.6-.3-1.27-.46-1.94-.46-1.43,.07-2.82,.49-4.05,1.21l1.98-3.1c.15,0,.31,0,.46-.04,.17-.02,.37-.05,.55-.07,.16-.02,.32-.04,.49-.05,.17-.02,.35-.02,.52-.02,1.45-.07,2.89,.34,4.09,1.16,1.11,.84,1.73,2.19,1.63,3.59v5.38c-.07,.74,.11,1.47,.52,2.09,.54,.51,1.26,.78,2,.75l-1.36,2.12c-1.07-.03-2.1-.38-2.98-.99-.66-.59-1.01-1.46-.94-2.34v-4.86c-.81,.45-1.69,.77-2.6,.95-.89,.18-1.76,.48-2.57,.9-.56,.39-.85,1.06-.78,1.73-.03,.71,.29,1.4,.86,1.83,.67,.47,1.48,.72,2.3,.71,.77-.05,1.53-.19,2.27-.4l-1.76,2.29c-.5,.08-1,.12-1.5,.13-1.36,.06-2.69-.39-3.73-1.25-.89-.74-1.4-1.83-1.4-2.99m-25.28-17.09c-.78-.22-1.54-.51-2.27-.88,10.42-5.3,10.23-20.6,22.97-25.18-9.85,5.74-9.78,20.05-20.7,26.06m-7.46-.05c.07-.04,.13-.08,.19-.11-.65-.29-1.28-.63-1.88-1.02-.19,.12-.39,.24-.6,.35,.73,.33,1.5,.6,2.28,.78"/></g></g></svg>